<?xml version="1.0" encoding="UTF-8" standalone="no"?>
<svg width="80px" height="80px" viewBox="0 0 80 80" version="1.1" xmlns="http://www.w3.org/2000/svg" xmlns:xlink="http://www.w3.org/1999/xlink">
    <!-- Generator: sketchtool 39.1 (31720) - http://www.bohemiancoding.com/sketch -->
    <title>37460557-F4E3-4EEE-BC27-99D3C202B536</title>
    <desc>Created with sketchtool.</desc>
    <defs></defs>
    <g id="Page-1" stroke="none" stroke-width="1" fill="none" fill-rule="evenodd">
        <g id="Dashboard" transform="translate(-2730.000000, -310.000000)" stroke="#B7B7B7" stroke-width="2">
            <g id="box" transform="translate(2230.000000, 292.000000)">
                <g id="icon-network" transform="translate(500.000000, 18.000000)">
                    <g id="Layer_1" transform="translate(10.000000, 22.000000)">
                        <path d="M50.1225,17.06375 C50.0975,17.06375 50.075,17.0675 50.05,17.0675 C50.12625,16.45 50.17875,15.825 50.17875,15.1875 C50.17875,6.8 43.38,0 34.99125,0 C28.455,0 22.90125,4.13625 20.75875,9.92625 C19.4,8.565 17.52,7.72125 15.445,7.72125 C11.29625,7.72125 7.93375,11.08375 7.93375,15.23125 C7.93375,15.3375 7.94625,15.44 7.95,15.545 C3.36875,16.81125 0,20.9975 0,25.98125 C0,31.96625 4.85125,36.8175 10.8375,36.8175 L50.1225,36.8175 C55.57875,36.8175 60,32.39625 60,26.94125 C60,21.48625 55.57875,17.06375 50.1225,17.06375 L50.1225,17.06375 Z" id="Shape"></path>
                    </g>
                </g>
            </g>
        </g>
    </g>
</svg>