<?xml version="1.0" encoding="UTF-8" standalone="no"?>
<svg width="80px" height="80px" viewBox="0 0 80 80" version="1.1"
     xmlns="http://www.w3.org/2000/svg">
    <!-- Generator: sketchtool 3.8.2 (29753) - http://www.bohemiancoding.com/sketch -->
    <title>8B8F3AF1-0580-4F45-A596-B1D97F769C2C</title>
    <desc>Created with sketchtool.</desc>
    <defs></defs>
    <g id="Page-1" stroke="none" stroke-width="1" fill="none" fill-rule="evenodd">
        <g id="01-reformat-hosts" transform="translate(-770.000000, -310.000000)" fill="#B7B7B7">
            <g id="box" transform="translate(320.000000, 292.000000)">
                <g id="icon-compute" transform="translate(450.000000, 18.000000)">
                    <path d="M60,60 L21,60 L21,21 L60,21 L60,60 L60,60 Z M22.95,58.05 L58.05,58.05 L58.05,22.95 L22.95,22.95 L22.95,58.05 L22.95,58.05 Z" id="Shape"></path>
                    <path d="M56,56 L25,56 L25,25 L56,25 L56,56 L56,56 Z M26.9375,54.0625 L54.0625,54.0625 L54.0625,26.9375 L26.9375,26.9375 L26.9375,54.0625 L26.9375,54.0625 Z" id="Shape"></path>
                    <path d="M58.2962963,53.4814815 L66,53.4814815 L66,55.4074074 L58.2962963,55.4074074 L58.2962963,53.4814815 Z M58.2962963,47.7037037 L66,47.7037037 L66,49.6296296 L58.2962963,49.6296296 L58.2962963,47.7037037 Z M58.2962963,41.9259259 L66,41.9259259 L66,43.8518519 L58.2962963,43.8518519 L58.2962963,41.9259259 Z M58.2962963,36.1481481 L66,36.1481481 L66,38.0740741 L58.2962963,38.0740741 L58.2962963,36.1481481 Z M58.2962963,30.3703704 L66,30.3703704 L66,32.2962963 L58.2962963,32.2962963 L58.2962963,30.3703704 Z M58.2962963,24.5925926 L66,24.5925926 L66,26.5185185 L58.2962963,26.5185185 L58.2962963,24.5925926 Z M14,53.4814815 L21.7037037,53.4814815 L21.7037037,55.4074074 L14,55.4074074 L14,53.4814815 Z M14,47.7037037 L21.7037037,47.7037037 L21.7037037,49.6296296 L14,49.6296296 L14,47.7037037 Z M14,41.9259259 L21.7037037,41.9259259 L21.7037037,43.8518519 L14,43.8518519 L14,41.9259259 Z M14,36.1481481 L21.7037037,36.1481481 L21.7037037,38.0740741 L14,38.0740741 L14,36.1481481 Z M14,30.3703704 L21.7037037,30.3703704 L21.7037037,32.2962963 L14,32.2962963 L14,30.3703704 Z M14,24.5925926 L21.7037037,24.5925926 L21.7037037,26.5185185 L14,26.5185185 L14,24.5925926 Z M53.4814815,14 L55.4074074,14 L55.4074074,21.7037037 L53.4814815,21.7037037 L53.4814815,14 Z M47.7037037,14 L49.6296296,14 L49.6296296,21.7037037 L47.7037037,21.7037037 L47.7037037,14 Z M41.9259259,14 L43.8518519,14 L43.8518519,21.7037037 L41.9259259,21.7037037 L41.9259259,14 Z M36.1481481,14 L38.0740741,14 L38.0740741,21.7037037 L36.1481481,21.7037037 L36.1481481,14 Z M30.3703704,14 L32.2962963,14 L32.2962963,21.7037037 L30.3703704,21.7037037 L30.3703704,14 Z M24.5925926,14 L26.5185185,14 L26.5185185,21.7037037 L24.5925926,21.7037037 L24.5925926,14 Z M53.4814815,58.2962963 L55.4074074,58.2962963 L55.4074074,66 L53.4814815,66 L53.4814815,58.2962963 Z M47.7037037,58.2962963 L49.6296296,58.2962963 L49.6296296,66 L47.7037037,66 L47.7037037,58.2962963 Z M41.9259259,58.2962963 L43.8518519,58.2962963 L43.8518519,66 L41.9259259,66 L41.9259259,58.2962963 Z M36.1481481,58.2962963 L38.0740741,58.2962963 L38.0740741,66 L36.1481481,66 L36.1481481,58.2962963 Z M30.3703704,58.2962963 L32.2962963,58.2962963 L32.2962963,66 L30.3703704,66 L30.3703704,58.2962963 Z M24.5925926,58.2962963 L26.5185185,58.2962963 L26.5185185,66 L24.5925926,66 L24.5925926,58.2962963 Z" id="Combined-Shape"></path>
                </g>
            </g>
        </g>
    </g>
</svg>
