<?xml version="1.0" encoding="UTF-8" standalone="no"?>
<svg width="80px" height="80px" viewBox="0 0 80 80" version="1.1" xmlns="http://www.w3.org/2000/svg" xmlns:xlink="http://www.w3.org/1999/xlink">
    <!-- Generator: sketchtool 3.8.2 (29753) - http://www.bohemiancoding.com/sketch -->
    <title>E3590327-CC74-48E6-8AE4-F0A89C8F4F1A</title>
    <desc>Created with sketchtool.</desc>
    <defs>
        <path d="M0,31.7 L0,45.3 C1.37086903,45.5 2.44798042,46.7 2.44798042,48.2 C2.44798042,49.7 1.37086903,50.9 0,51.1 L0,53.1 L80,53.1 L80,51 C78.7270502,50.7 77.8457772,49.5 77.747858,48.1 L77.747858,48.1 C77.747858,46.7 78.7270502,45.6 80,45.2 L80,28.9 L2.74173807,28.9 C1.27294982,28.9 0,30.2 0,31.7 L0,31.7 Z" id="path-1"></path>
        <mask id="mask-2" maskContentUnits="userSpaceOnUse" maskUnits="objectBoundingBox" x="0" y="0" width="80" height="24.2" fill="white">
            <use xlink:href="#path-1"></use>
        </mask>
    </defs>
    <g id="Page-1" stroke="none" stroke-width="1" fill="none" fill-rule="evenodd">
        <g id="01-reformat-hosts" transform="translate(-1350.000000, -310.000000)">
            <g id="box" transform="translate(900.000000, 292.000000)">
                <g id="memory" transform="translate(450.000000, 18.000000)">
                    <use id="Shape" stroke="#B7B7B7" mask="url(#mask-2)" stroke-width="4" xlink:href="#path-1"></use>
                    <polygon id="Shape" fill="#B7B7B7" points="4.3373494 54.5 4.3373494 53 5.78313253 53 7.22891566 53 7.22891566 54.5 7.22891566 56 5.78313253 56 4.3373494 56"></polygon>
                    <polygon id="Shape" fill="#B7B7B7" points="8.86746988 54.5 8.86746988 53 10.313253 53 11.7590361 53 11.7590361 54.5 11.7590361 56 10.313253 56 8.86746988 56"></polygon>
                    <polygon id="Shape" fill="#B7B7B7" points="13.3975904 54.5 13.3975904 53 14.8433735 53 16.3855422 53 16.3855422 54.5 16.3855422 56 14.939759 56 13.4939759 56 13.4939759 54.5"></polygon>
                    <polygon id="Shape" fill="#B7B7B7" points="17.9277108 54.5 17.9277108 53 19.373494 53 20.8192771 53 20.8192771 54.5 20.8192771 56 19.373494 56 17.9277108 56"></polygon>
                    <polygon id="Shape" fill="#B7B7B7" points="22.4578313 54.5 22.4578313 53 23.9036145 53 25.3493976 53 25.3493976 54.5 25.3493976 56 23.9036145 56 22.4578313 56"></polygon>
                    <polygon id="Shape" fill="#B7B7B7" points="26.9879518 54.5 26.9879518 53 28.4337349 53 29.8795181 53 29.8795181 54.5 29.8795181 56 28.4337349 56 26.9879518 56"></polygon>
                    <polygon id="Shape" fill="#B7B7B7" points="31.6144578 54.5 31.6144578 53 33.060241 53 34.5060241 53 34.5060241 54.5 34.5060241 56 33.060241 56 31.6144578 56"></polygon>
                    <polygon id="Shape" fill="#B7B7B7" points="36.1445783 54.5 36.1445783 53 37.5903614 53 39.0361446 53 39.0361446 54.5 39.0361446 56 37.5903614 56 36.1445783 56"></polygon>
                    <polygon id="Shape" fill="#B7B7B7" points="40.6746988 54.5 40.6746988 53 42.1204819 53 43.5662651 53 43.5662651 54.5 43.5662651 56 42.1204819 56 40.6746988 56"></polygon>
                    <polygon id="Shape" fill="#B7B7B7" points="45.2048193 54.5 45.2048193 53 46.6506024 53 48.0963855 53 48.0963855 54.5 48.0963855 56 46.6506024 56 45.2048193 56"></polygon>
                    <polygon id="Shape" fill="#B7B7B7" points="49.7349398 54.5 49.7349398 53 51.1807229 53 52.626506 53 52.626506 54.5 52.626506 56 51.1807229 56 49.7349398 56"></polygon>
                    <polygon id="Shape" fill="#B7B7B7" points="54.2650602 54.5 54.2650602 53 55.7108434 53 57.1566265 53 57.1566265 54.5 57.1566265 56 55.7108434 56 54.2650602 56"></polygon>
                    <polygon id="Shape" fill="#B7B7B7" points="64.9638554 54.5 64.9638554 53 66.4096386 53 67.8554217 53 67.8554217 54.5 67.8554217 56 66.4096386 56 64.9638554 56"></polygon>
                    <polygon id="Shape" fill="#B7B7B7" points="69.4939759 54.5 69.4939759 53 70.939759 53 72.3855422 53 72.3855422 54.5 72.3855422 56 70.939759 56 69.4939759 56"></polygon>
                    <polygon id="Shape" fill="#B7B7B7" points="74.0240964 54.5 74.0240964 53 75.4698795 53 76.9156627 53 76.9156627 54.5 76.9156627 56 75.4698795 56 74.0240964 56"></polygon>
                    <path d="M12.4932321,33.2931034 C12.7466904,33.2931034 12.9156626,33.4793103 12.9156626,33.7586207 L12.9156626,46.2344828 C12.9156626,46.5137931 12.7466904,46.7 12.4932321,46.7 L6.49471961,46.7 C6.24126134,46.7 6.07228916,46.5137931 6.07228916,46.2344828 L6.07228916,33.6655172 C6.07228916,33.3862069 6.24126134,33.2 6.49471961,33.2 L12.4932321,33.2931034 L12.4932321,33.2931034 L12.4932321,33.2931034 Z M12.9156627,32.2 L12.9156627,32.2 L6.07228916,32.2 C5.59036145,32.2 5.10843373,32.6 5.10843373,33.2 L5.10843373,46.6 C5.10843373,47.1 5.4939759,47.6 6.07228916,47.6 L6.07228916,47.6 L12.9156627,47.6 C13.3975904,47.6 13.8795181,47.2 13.8795181,46.6 L13.8795181,33.2 C13.7831325,32.6 13.3975904,32.2 12.9156627,32.2 L12.9156627,32.2 L12.9156627,32.2 Z" id="Shape" fill="#B7B7B7"></path>
                    <path d="M22.9028707,33.1931034 C23.1563289,33.1931034 23.3253011,33.3793103 23.3253011,33.6586207 L23.3253011,46.1344828 C23.3253011,46.4137931 23.1563289,46.6 22.9028707,46.6 L16.9043582,46.6 C16.6508999,46.6 16.4819277,46.4137931 16.4819277,46.1344828 L16.4819277,33.5655172 C16.4819277,33.2862069 16.6508999,33.1 16.9043582,33.1 L22.9028707,33.1931034 L22.9028707,33.1931034 L22.9028707,33.1931034 Z M23.3253012,32.1 L23.3253012,32.1 L16.4819277,32.1 C16,32.1 15.5180723,32.5 15.5180723,33.1 L15.5180723,46.5 C15.5180723,47 15.9036145,47.5 16.4819277,47.5 L16.4819277,47.5 L23.3253012,47.5 C23.8072289,47.5 24.2891566,47.1 24.2891566,46.5 L24.2891566,33.1 C24.1927711,32.5 23.8072289,32.1 23.3253012,32.1 L23.3253012,32.1 L23.3253012,32.1 Z" id="Shape" fill="#B7B7B7"></path>
                    <path d="M33.4088948,33.0931034 C33.662353,33.0931034 33.8313252,33.2793103 33.8313252,33.5586207 L33.8313252,46.0344828 C33.8313252,46.3137931 33.662353,46.5 33.4088948,46.5 L27.4103823,46.5 C27.156924,46.5 26.9879518,46.3137931 26.9879518,46.0344828 L26.9879518,33.4655172 C26.9879518,33.1862069 27.156924,33 27.4103823,33 L33.4088948,33.0931034 L33.4088948,33.0931034 L33.4088948,33.0931034 Z M33.8313253,32 L33.8313253,32 L26.9879518,32 C26.5060241,32 26.0240964,32.4 26.0240964,33 L26.0240964,46.4 C26.0240964,46.9 26.4096386,47.4 26.9879518,47.4 L26.9879518,47.4 L33.8313253,47.4 C34.313253,47.4 34.7951807,47 34.7951807,46.4 L34.7951807,33 C34.6987952,32.4 34.313253,32 33.8313253,32 L33.8313253,32 L33.8313253,32 Z" id="Shape" fill="#B7B7B7"></path>
                    <path d="M59.4329911,33.0931034 C59.6864494,33.0931034 59.8554216,33.2793103 59.8554216,33.5586207 L59.8554216,46.0344828 C59.8554216,46.3137931 59.6864494,46.5 59.4329911,46.5 L53.4344786,46.5 C53.1810204,46.5 53.0120482,46.3137931 53.0120482,46.0344828 L53.0120482,33.4655172 C53.0120482,33.1862069 53.1810204,33 53.4344786,33 L59.4329911,33.0931034 L59.4329911,33.0931034 L59.4329911,33.0931034 Z M59.8554217,32 L59.8554217,32 L53.0120482,32 C52.5301205,32 52.0481928,32.4 52.0481928,33 L52.0481928,46.4 C52.0481928,46.9 52.4337349,47.4 53.0120482,47.4 L53.0120482,47.4 L59.8554217,47.4 C60.3373494,47.4 60.8192771,47 60.8192771,46.4 L60.8192771,33 C60.7228916,32.4 60.3373494,32 59.8554217,32 L59.8554217,32 L59.8554217,32 Z" id="Shape" fill="#B7B7B7"></path>
                    <path d="M43.8185333,33.0931034 C44.0719916,33.0931034 44.2409638,33.2793103 44.2409638,33.5586207 L44.2409638,46.0344828 C44.2409638,46.3137931 44.0719916,46.5 43.8185333,46.5 L37.8200208,46.5 C37.5665625,46.5 37.3975904,46.3137931 37.3975904,46.0344828 L37.3975904,33.4655172 C37.3975904,33.1862069 37.5665625,33 37.8200208,33 L43.8185333,33.0931034 L43.8185333,33.0931034 L43.8185333,33.0931034 Z M44.2409639,32 L44.2409639,32 L37.3975904,32 C36.9156627,32 36.4337349,32.4 36.4337349,33 L36.4337349,46.4 C36.4337349,46.9 36.8192771,47.4 37.3975904,47.4 L37.3975904,47.4 L44.2409639,47.4 C44.7228916,47.4 45.2048193,47 45.2048193,46.4 L45.2048193,33 C45.1084337,32.4 44.7228916,32 44.2409639,32 L44.2409639,32 L44.2409639,32 Z" id="Shape" fill="#B7B7B7"></path>
                    <path d="M70.0354008,33.0931034 C70.2888591,33.0931034 70.4578312,33.2793103 70.4578312,33.5586207 L70.4578312,46.0344828 C70.4578312,46.3137931 70.2888591,46.5 70.0354008,46.5 L64.0368883,46.5 C63.78343,46.5 63.6144578,46.3137931 63.6144578,46.0344828 L63.6144578,33.4655172 C63.6144578,33.1862069 63.78343,33 64.0368883,33 L70.0354008,33.0931034 L70.0354008,33.0931034 L70.0354008,33.0931034 Z M70.4578313,32 L70.4578313,32 L63.6144578,32 C63.1325301,32 62.6506024,32.4 62.6506024,33 L62.6506024,46.4 C62.6506024,46.9 63.0361446,47.4 63.6144578,47.4 L63.6144578,47.4 L70.4578313,47.4 C70.939759,47.4 71.4216867,47 71.4216867,46.4 L71.4216867,33 C71.3253012,32.4 70.939759,32 70.4578313,32 L70.4578313,32 L70.4578313,32 Z" id="Shape" fill="#B7B7B7"></path>
                </g>
            </g>
        </g>
    </g>
</svg>